<mxfile host="app.diagrams.net" modified="2020-06-24T14:41:55.176Z" agent="5.0 (Windows)" etag="koHfwRC4Bvhffa67c_im" version="13.3.3" type="github">
  <diagram id="C5RBs43oDa-KdzZeNtuy" name="Page-1">
    <mxGraphModel dx="868" dy="489" grid="1" gridSize="10" guides="1" tooltips="1" connect="1" arrows="1" fold="1" page="1" pageScale="1" pageWidth="827" pageHeight="1169" math="0" shadow="0">
      <root>
        <mxCell id="WIyWlLk6GJQsqaUBKTNV-0" />
        <mxCell id="WIyWlLk6GJQsqaUBKTNV-1" parent="WIyWlLk6GJQsqaUBKTNV-0" />
        <mxCell id="WIyWlLk6GJQsqaUBKTNV-2" value="" style="rounded=0;html=1;jettySize=auto;orthogonalLoop=1;fontSize=11;endArrow=block;endFill=0;endSize=8;strokeWidth=1;shadow=0;labelBackgroundColor=none;edgeStyle=orthogonalEdgeStyle;" parent="WIyWlLk6GJQsqaUBKTNV-1" edge="1">
          <mxGeometry relative="1" as="geometry">
            <mxPoint x="199.5" y="70" as="sourcePoint" />
            <mxPoint x="200" y="100" as="targetPoint" />
          </mxGeometry>
        </mxCell>
        <mxCell id="FTJqhVic46IgMr-_Lun3-0" value="Mulai" style="rounded=1;whiteSpace=wrap;html=1;" vertex="1" parent="WIyWlLk6GJQsqaUBKTNV-1">
          <mxGeometry x="140" y="40" width="120" height="40" as="geometry" />
        </mxCell>
        <mxCell id="FTJqhVic46IgMr-_Lun3-5" value="" style="rounded=0;html=1;jettySize=auto;orthogonalLoop=1;fontSize=11;endArrow=block;endFill=0;endSize=8;strokeWidth=1;shadow=0;labelBackgroundColor=none;edgeStyle=orthogonalEdgeStyle;" edge="1" parent="WIyWlLk6GJQsqaUBKTNV-1">
          <mxGeometry relative="1" as="geometry">
            <mxPoint x="200" y="140" as="sourcePoint" />
            <mxPoint x="199.5" y="160" as="targetPoint" />
          </mxGeometry>
        </mxCell>
        <mxCell id="FTJqhVic46IgMr-_Lun3-7" value="" style="rounded=0;html=1;jettySize=auto;orthogonalLoop=1;fontSize=11;endArrow=block;endFill=0;endSize=8;strokeWidth=1;shadow=0;labelBackgroundColor=none;edgeStyle=orthogonalEdgeStyle;" edge="1" parent="WIyWlLk6GJQsqaUBKTNV-1">
          <mxGeometry relative="1" as="geometry">
            <mxPoint x="200" y="280" as="sourcePoint" />
            <mxPoint x="199.5" y="300" as="targetPoint" />
          </mxGeometry>
        </mxCell>
        <mxCell id="FTJqhVic46IgMr-_Lun3-8" value="" style="rounded=0;html=1;jettySize=auto;orthogonalLoop=1;fontSize=11;endArrow=block;endFill=0;endSize=8;strokeWidth=1;shadow=0;labelBackgroundColor=none;edgeStyle=orthogonalEdgeStyle;" edge="1" parent="WIyWlLk6GJQsqaUBKTNV-1">
          <mxGeometry relative="1" as="geometry">
            <mxPoint x="200" y="545.5" as="sourcePoint" />
            <mxPoint x="199.5" y="565.5" as="targetPoint" />
          </mxGeometry>
        </mxCell>
        <mxCell id="FTJqhVic46IgMr-_Lun3-9" value="Studi Literatur" style="rounded=0;whiteSpace=wrap;html=1;" vertex="1" parent="WIyWlLk6GJQsqaUBKTNV-1">
          <mxGeometry x="140" y="100" width="120" height="40" as="geometry" />
        </mxCell>
        <mxCell id="FTJqhVic46IgMr-_Lun3-10" value="Instalasi software Solidworks" style="rounded=0;whiteSpace=wrap;html=1;" vertex="1" parent="WIyWlLk6GJQsqaUBKTNV-1">
          <mxGeometry x="140" y="160" width="120" height="40" as="geometry" />
        </mxCell>
        <mxCell id="FTJqhVic46IgMr-_Lun3-11" value="&lt;p align=&quot;center&quot;&gt;&lt;span&gt;Membuat desain &lt;i&gt;airfoil&lt;/i&gt; NACA-4412 dan Vortex Generatormenggunakan software solidworks 2019&lt;/span&gt;&lt;/p&gt;" style="rounded=0;whiteSpace=wrap;html=1;" vertex="1" parent="WIyWlLk6GJQsqaUBKTNV-1">
          <mxGeometry x="90" y="220" width="220" height="60" as="geometry" />
        </mxCell>
        <mxCell id="FTJqhVic46IgMr-_Lun3-12" value="Simulasi dengan software Solidworks" style="rounded=0;whiteSpace=wrap;html=1;" vertex="1" parent="WIyWlLk6GJQsqaUBKTNV-1">
          <mxGeometry x="140" y="300" width="120" height="51" as="geometry" />
        </mxCell>
        <mxCell id="FTJqhVic46IgMr-_Lun3-13" value="" style="rounded=0;html=1;jettySize=auto;orthogonalLoop=1;fontSize=11;endArrow=block;endFill=0;endSize=8;strokeWidth=1;shadow=0;labelBackgroundColor=none;edgeStyle=orthogonalEdgeStyle;" edge="1" parent="WIyWlLk6GJQsqaUBKTNV-1">
          <mxGeometry relative="1" as="geometry">
            <mxPoint x="200" y="200" as="sourcePoint" />
            <mxPoint x="199.5" y="220" as="targetPoint" />
          </mxGeometry>
        </mxCell>
        <mxCell id="FTJqhVic46IgMr-_Lun3-14" value="" style="rounded=0;html=1;jettySize=auto;orthogonalLoop=1;fontSize=11;endArrow=block;endFill=0;endSize=8;strokeWidth=1;shadow=0;labelBackgroundColor=none;edgeStyle=orthogonalEdgeStyle;" edge="1" parent="WIyWlLk6GJQsqaUBKTNV-1">
          <mxGeometry relative="1" as="geometry">
            <mxPoint x="200" y="351" as="sourcePoint" />
            <mxPoint x="199.5" y="371" as="targetPoint" />
          </mxGeometry>
        </mxCell>
        <mxCell id="FTJqhVic46IgMr-_Lun3-15" value="" style="rounded=0;html=1;jettySize=auto;orthogonalLoop=1;fontSize=11;endArrow=block;endFill=0;endSize=8;strokeWidth=1;shadow=0;labelBackgroundColor=none;edgeStyle=orthogonalEdgeStyle;" edge="1" parent="WIyWlLk6GJQsqaUBKTNV-1">
          <mxGeometry relative="1" as="geometry">
            <mxPoint x="200" y="400" as="sourcePoint" />
            <mxPoint x="199.5" y="420" as="targetPoint" />
          </mxGeometry>
        </mxCell>
        <mxCell id="FTJqhVic46IgMr-_Lun3-16" value="Data hasil simulasi" style="rounded=0;whiteSpace=wrap;html=1;" vertex="1" parent="WIyWlLk6GJQsqaUBKTNV-1">
          <mxGeometry x="140" y="370" width="120" height="30" as="geometry" />
        </mxCell>
        <mxCell id="FTJqhVic46IgMr-_Lun3-17" value="Pembahasan" style="rounded=0;whiteSpace=wrap;html=1;" vertex="1" parent="WIyWlLk6GJQsqaUBKTNV-1">
          <mxGeometry x="140" y="420" width="120" height="30" as="geometry" />
        </mxCell>
        <mxCell id="FTJqhVic46IgMr-_Lun3-21" value="" style="rounded=0;html=1;jettySize=auto;orthogonalLoop=1;fontSize=11;endArrow=block;endFill=0;endSize=8;strokeWidth=1;shadow=0;labelBackgroundColor=none;edgeStyle=orthogonalEdgeStyle;" edge="1" parent="WIyWlLk6GJQsqaUBKTNV-1">
          <mxGeometry relative="1" as="geometry">
            <mxPoint x="200" y="450" as="sourcePoint" />
            <mxPoint x="199.5" y="470" as="targetPoint" />
          </mxGeometry>
        </mxCell>
        <mxCell id="FTJqhVic46IgMr-_Lun3-22" value="Kesimpulan dan saran" style="rounded=0;whiteSpace=wrap;html=1;" vertex="1" parent="WIyWlLk6GJQsqaUBKTNV-1">
          <mxGeometry x="120" y="470" width="160" height="30" as="geometry" />
        </mxCell>
        <mxCell id="FTJqhVic46IgMr-_Lun3-23" value="" style="rounded=0;html=1;jettySize=auto;orthogonalLoop=1;fontSize=11;endArrow=block;endFill=0;endSize=8;strokeWidth=1;shadow=0;labelBackgroundColor=none;edgeStyle=orthogonalEdgeStyle;" edge="1" parent="WIyWlLk6GJQsqaUBKTNV-1">
          <mxGeometry relative="1" as="geometry">
            <mxPoint x="200" y="500" as="sourcePoint" />
            <mxPoint x="199.5" y="520" as="targetPoint" />
          </mxGeometry>
        </mxCell>
        <mxCell id="FTJqhVic46IgMr-_Lun3-24" value="Laporan Akhir Skripsi" style="rounded=0;whiteSpace=wrap;html=1;" vertex="1" parent="WIyWlLk6GJQsqaUBKTNV-1">
          <mxGeometry x="120" y="520" width="160" height="25.5" as="geometry" />
        </mxCell>
        <mxCell id="FTJqhVic46IgMr-_Lun3-25" value="Selesai" style="rounded=1;whiteSpace=wrap;html=1;" vertex="1" parent="WIyWlLk6GJQsqaUBKTNV-1">
          <mxGeometry x="140" y="565" width="120" height="30" as="geometry" />
        </mxCell>
      </root>
    </mxGraphModel>
  </diagram>
</mxfile>
